<svg fill="none" height="12" viewBox="0 0 1568 12" width="1568" xmlns="http://www.w3.org/2000/svg"><path clip-rule="evenodd" d="m1568 0h-1568v8.52393c6.62903-.01856 13.2667-.09131 19.8958-.18262 7.8477-.1001 15.7213.02734 23.5604.22803 1.7977.04589 3.5868.05468 5.3758.02734 1.0705.02588 2.1365.05176 3.2044.08398.441.01319.8824.02784 1.3244.04395.0606.01807.1642.02734.3112.02734h.047c.0382-.00049.0712-.00244.1085-.00927 1.0631.03662 2.1176.07324 3.1807.12793-.0261.02734-.0087.06005.0084.09228.0223.04199.0441.08252-.0344.1084-.3025.1001-.1729.22803-.6914.3374-.6482.12744-.7692.32813-.3544.4834.4313.16061.2338.31251.0146.48091l-.0146.0118c-.5659-.0103-.8307-.0733-1.0887-.1353-.2188-.0522-.4328-.1035-.8213-.1201-.6137.0635-.51.146-.3112.2368.7166.3272 1.8397.6143 2.9664.9019.2865.0732.5733.1465.8537.2202.0865.022.2234.0386.3673.0478.2734.0181.5724.0093.6007-.0385.063-.1109.4927-.1578.9171-.2041.2744-.0298.5468-.0596.7164-.106.5186-.146 1.0285-.1279 1.5557-.0093.141.0308.2985.0489.4659.0591.3765.0234.804.0078 1.2109.0137.5251.0097.8028-.0513 1.0654-.1084.2474-.0542.4814-.1055.8965-.0923.4061.0122.7596.0137 1.0792.001.4014-.0157.7494-.0533 1.0814-.1192.1297-.0273.3717-.0278.51-.0551.873-.1456.6309-.2735-.5964-.4195-.605-.0727-1.3568-.0913-2.0829-.0639-1.2618.0366-2.394-.1456-2.3249-.3555.0432-.12794 1.331-.40138 2.0398-.41945.9725-.0249 1.4398.09229 1.8796.20362l.1341.0332c.2247.05469.2765.13672.5273.18263.5123.105.8906.228 1.2685.3511.7697.25 1.5377.4995 3.4331.5976.2852.0181.2074.082.3371.1182.7.2099 2.0138.292 3.1373.4199.2421.0273.5704.0273.7174-.0181.5099-.1733 1.089-.1279 1.7459-.0278.4147.064.8642.1006 1.4779.0552.6742-.0459 1.3828-.0093 1.9792.0454.339.0273.6998.041 1.0627.0547.3588.0136.7197.0273 1.0634.0547.4321.0366.8556.018 1.2878-.1094.3826-.1192.311-.207.1833-.294-.0684-.0468-.1527-.0932-.1919-.144-.0951-.1094-.1557-.2007.8469-.1914 1.2965 0 1.5645-.0728.847-.2461-.2436-.0615-.4659-.1245-.6448-.1895-.2463-.0888-.4104-.1806-.4355-.2758-.0432-.1367-.4321-.1919-1.0718-.24661-.6136-.05469-.9938-.17285-.8988-.30078.1034-.12647.5083-.1875.9192-.24952.2416-.03662.4854-.07373.6711-.12451.7432-.20068 1.4952-.20068 2.273-.00927.4495.10937.7693.2373 1.7632.29199.3112-.21875 1.089-.32813 2.3941-.3374.5371 0 .7304-.06934.9309-.14161.177-.06347.3595-.1289.789-.15039 0 0 0-.04541-.0692-.05468-1.668-.146-.0085-.35596-.337-.53809.1793.02686.3554.0542.5304.08154 1.183.18311 2.313.3584 4.007.37451.0304 0 .0566.00879.0815.01758l.031.00977c.7173.17334 1.8495.20068 2.9127.18262 2.23-.03663 4.097.09082 5.929.27343 1.391.13672 1.581.31006.51.52002-.363.07276-1.184.08203-1.02.2188 1.772.0366 2.576 0 2.567-.18218-.009-.18261.596-.22802 1.253-.31054l.225-.02784c.384-.04589.786-.09375.959-.15429.959-.34668 3.042-.37403 4.797-.49268.214-.01562.44-.02734.672-.0332.432-.01123.886-.00244 1.324.0332 1.219.07276 2.438.07324 3.674.0459 3.802.10938 7.614.22754 11.425.2915 0 .03809-.008.08057-.016.1211l-.01.05224c-.086.83009 1.193 1.33199 2.896 1.22269 1.244-.0733 2.541-.1919 3.664-.4473 1.91-.42871 3.881-.756836 5.886-1.0122 5.687-.12793 11.374-.28321 17.061-.31934 3.824-.02783 7.64.01709 11.464.06201l.092.00147c-.286.08252-.666.17334-1.159.26465.293-.01172.549-.01612.781-.01612.48-.00048.863.01612 1.276.01612 2.861-.03662 5.722-.06397 8.583-.09131l-.735.05469c1.387.01855 2.777.03418 4.166.05029s2.779.03174 4.166.05029c5.816.22803 11.633.4834 17.45.7207 1.379.23385 1.268.07275 1.105-.16455-.187-.27148-.442-.64306 1.384-.63818 1.863.00537 3.7.18164 5.551.35938 1.232.11865 2.469.2373 3.723.30664 1.999.10888 3.994.11572 5.985.12255 1.675.00586 3.347.01123 5.017.07761 1.564.064 2.74-.25534 3.716-.68405.436-.18897 2.501.10498 4.575.40039 2.122.30226 4.254.60596 4.656.39356.588-.0093 1.175 0 1.746-.0186 1.313-.0273 2.515-.15475 3.587-.51949-.018.02734-.07.08203-.07.08203 1.072-.32861 2.109-.70264 3.457-.72998 3.449-.07275 6.776-.43799 10.087-.85742 1.019.0166 2.038.02197 3.056.01855 1.218-.00439 2.436-.02099 3.65-.0459 1.677.63868 3.337.77539 5.299.84815 8.993.32617 17.983.16797 26.971.00976 3.83-.06738 7.66-.13476 11.489-.16455 3.91.02784 7.819.09571 11.729.16309 8.908.1543 17.818.30859 26.732-.0083.985-.03613 1.901-.09082 2.774-.20947h.138c-.025 0-.034 0-.051-.00928.976-.146 1.91-.3833 2.852-.79346.217-.09717.433-.18359.654-.27197l.21-.08399.561.03418c.834.04932 1.668.09864 2.473.20313l.059.00732c4.085.53565 8.155 1.06934 12.412 1.16016.821.01807 1.53.16406 2.204.34668-1.607-.02734-3.189-.07275-4.814-.07275-2.792 0-5.246-.146-7.355-.47461-1.089-.16407-2.48-.26465-4.027-.292-.577-.01269-1.122.00977-1.664.03223-.628.02588-1.251.05176-1.915.02246-.268-.00879-.414.0459-.492.09131-.043.02686-.027.04932.027.06836.056.02002.152.03613.267.05029.285.02735.682.06397.933.04541.762-.04297 1.472-.01465 2.184.01367.339.01319.677.02637 1.022.03223 1.513.01807 2.758.11865 3.483.34668.188.05859.429.09229.705.10449.194.00879.405.00684.627-.00439 2.039-.1001 4.053 0 6.032.03662 1.228.01904 2.46.04248 3.699.06738l1.625.0332c.303.09083.605.18213.899.28272 0 0-.052-.05469-.069-.08203 1.072.37353 2.282.50149 3.587.51949.287.0049.579.0074.873.0098.289.002.581.0044.873.0088.389.2007.803.4014 1.227.5928.017 0 .034.018.052.0273.198.0913.406.1826.613.2734l.033.0127.037.0147c.109.0503.222.0981.334.1465.091.0386.182.0771.27.1181.925.4014 2.014.7027 3.432.6841h.285c.458-.018.916-.0273 1.374-.0454 1.686-.0395 3.379-.0303 5.074-.0386 1.059-.0053 2.12-.0175 3.18-.0527.458-.0181.916-.0366 1.383-.064.389-.018.778-.0454 1.167-.0727.389-.0274.777-.064 1.166-.1006 2.325-.2095 4.607-.4834 6.941-.4922.216 0 .432 0 .639-.0093h.199c.055 0 .108-.0014.161-.0034.09-.0034.179-.0093.271-.0151.078 0 .156-.0088.233-.0181.088 0 .175-.0083.262-.0166.042-.0039.085-.0078.127-.0107.049 0 .095-.0039.142-.0083l.083-.0098.38-.0273c.069 0 .147-.0186.216-.0186l.118-.0102c.087-.0093.173-.0201.263-.0259.044 0 .085-.0074.126-.0157.024-.0043.048-.0087.073-.0117.066-.0097.133-.0166.199-.0234.063-.0068.126-.0137.189-.0225.024 0 .048-.0029.072-.0068.037-.0064.073-.0151.11-.0205l.406-.0547c.026 0 .05-.0044.073-.0088.024-.0044.048-.0093.074-.0093.072-.0092.142-.02.211-.0312.073-.0117.146-.0235.221-.0327.035 0 .069-.0093.104-.0181.155-.0273.32-.0547.475-.0732h.044c.608-.1031 1.208-.2129 1.808-.3228.62-.1138 1.241-.2275 1.873-.33398 5.817-.24609 11.634-.49267 17.45-.7207 2.775-.03613 5.558-.06348 8.332-.1001-.38-.03662-.769-.06396-1.15-.08203.948-.01758 1.895-.02637 2.835-.03516l.165-.00146h.518c-.683.02734-1.374.07275-2.065.13672 1.761.02197 3.523.04199 5.285.06201 1.859.02099 3.719.04248 5.579.06592 1.1.01318 2.199.04394 3.298.0747 2.741.07715 5.479.1543 8.231-.04736.674-.0459 1.478-.07324 2.074.03613.238.04541.389.17285.539.29932.15.12695.299.25293.533.29394 1.561.25635 1.948.02588 2.424-.25781.455-.27099.992-.59033 2.71-.58154 1.863.00537 3.701.18164 5.551.35937 1.232.11866 2.469.23731 3.723.30664 1.998.10889 3.991.11573 5.981.12256 1.676.00586 3.349.01123 5.021.07813 1.564.0635 2.74-.25537 3.716-.68408.724-.31543 2.458-.14258 4.166.02783 1.801.17969 3.573.35644 4.097-.04639.294.0044.585.01123.877.01807.292.00683.584.01367.878.01855.967.01807 2.005-.01806 2.964.07324.977.09083 2.014.0542 2.757-.0913.519-.10059.968-.146 1.711-.06397.329.0376.707.03613 1.089.03467.17-.00049.342-.00098.51.00195 2.567.01807 5.117.07276 7.658.13672 1.722.04688 3.468.07031 5.205.10205 1.287.02393 2.57.05225 3.835.09864h.424c3.612-.04542 7.113.01806 10.483.24609l.056.00293c.182.00976.431.02246.532.00635 1.331-.16407 2.723-.18262 4.201-.06397 1.419-.13086 2.937-.10498 4.414-.08057.376.00635.749.0127 1.117.01661.623.00634 1.242-.00196 1.864-.01026 1.146-.01465 2.298-.03027 3.486.04688.224.01513.421.02734.595.03808 1.206.0752 1.271.07959 1.263.39058-.318 0-.638.004-.958.0079-1.037.0131-2.067.0268-2.992-.0992-.043-.0039-.102-.0063-.165-.0083-.074-.0024-.154-.0048-.224-.0097-.294 0-.553 0-.674.0547-.112.0454-.138.0913.035.1279.242.0547.57.1001.968.1182.672.0312 1.327.0722 1.982.1137 1.442.0908 2.886.1817 4.526.169.774-.0064 1.569.0425 2.359.0908.321.02.642.0395.96.0552.125.0048.247.0171.328.0351.076.0171.116.0391.087.0655-.061.0546-.355.0639-.614.0639-.138.0025-.282.0015-.426.0005-.381-.0024-.768-.0054-1.069.0542 2.29.2007 3.405.1821 4.338-.1006.502-.1548.666-.3281.813-.5107.076-.0884.472-.1441.863-.1988.456-.0634.905-.1259.831-.23921l.276.02731c1.461.0826 2.481-.02731 3.328-.21872.493-.10937.812-.2373 1.504-.31933.345-.03614.665-.09083 1.054-.01807.441.07471 1.004.10547 1.571.13672.401.02197.804.04443 1.169.08203.544.05469 1.184.03662 1.201.20996.018.17331 1.556.29201 2.204.22801 1.435-.15526 2.083-.15526 3.336 0 1.496.1914 2.956.3833 4.425.584.389.0547.96.1001 1.072-.0186.156-.164.752-.164 1.444-.1547 1.201.0273 2.411.0361 3.621.0361h.204c.894-.0015 1.776-.0024 2.008.2007.061.0547.363.0825.614.0639 1.435-.0727 2.092.1094 2.904.2373.119.0181.232.0372.349.0538.239.0332.495.0561.861.0376.985-.0489 1.986-.087 2.987-.125 1.625-.0621 3.249-.1236 4.8-.231.64-.0454 1.193-.1094 1.651-.1914.251-.0459.398-.1367.89-.1094.289.0142.474.0484.598.0908.112.0386.173.0845.215.128.147.1552-.623.5107-1.331.6201-.173.0273-.225.0547-.182.0913.173.1367-.276.3013.787.3921 1.011.0913 1.944.1098 2.765-.0454.323-.0581.661-.1055 1.038-.1426.392-.0386.824-.0669 1.322-.0855.57-.018 1.175-.082 1.599-.1367.158-.0215.329-.042.502-.063.703-.0844 1.446-.1738 1.563-.3569-.986.0425-1.577.1382-2.15.2315l-.149.0239c-.414.0732-1.045.0913-1.521.0366-.458-.0547-.613-.1367-.475-.228.091-.0674.168-.1324.366-.1812.178-.0434.453-.0747.922-.0835.605 0 1.028-.0454.976-.1728-.026-.064.251-.1006.588-.128.951-.0732 1.279-.2553 2.169-.3466.519-.0547.631-.18266.32-.27348-.563-.16064-1.048-.32959-1.534-.49853-.784-.27246-1.569-.5459-2.683-.7876-.683-.146-1.599-.26465-2.135-.4292-.018 0-.035 0-.043-.00879 1.469.01807 2.947.01807 4.425-.00928 3.31.41944 6.637.78467 10.086.85743 1.238.0249 2.214.33545 3.195.64697l.262.08301s-.052-.05469-.069-.08252c1.072.37399 2.282.50199 3.587.51999.302.0054.611.0074.922.0093 1.211.0068 2.456.0142 3.46.2461 3.257.7593 6.643.6333 9.96.5098l.688-.0259c8.103-.2944 16.197-.6362 24.291-.97804 5.2-.21973 10.401-.43897 15.604-.646 3.107-.12549 6.221-.16699 9.336-.20849l.819-.01026c6.145-.07324 12.299-.20068 18.453-.16406 6.784.04541 13.56.25537 20.336.39209 6.11.11621 12.2-.05811 18.292-.23242 3.008-.08643 6.017-.17237 9.028-.22364 1.089-.01855 1.884-.13671 2.455-.61132l2.938-.08204 2.973-.08203h.035c.872-.02539 1.753-.04297 2.626-.06054l.183-.00342c.134 0 .266-.00147.398-.00391.183-.0039.367-.00879.553-.01416l1.884-.02734c.363 0 .734-.00928 1.097-.01856.579 0 1.159-.01806 1.738-.01806.38 0 .76 0 1.149-.00879.571 0 1.133-.00928 1.703-.01856h.026c.184 0 .368 0 .552-.00097.187-.00098.375-.00342.563-.0083.301 0 .602-.00196.905-.00391.305-.00244.61-.00488.918-.00488h1.003c.786 0 1.564-.00928 2.351-.00928.881 0 1.763 0 2.653-.00928h.225l.596.02735c.367.01855.738.0332 1.108.04882.901.03809 1.803.08155 2.66.19776 4.486.59277 8.989.8208 13.5.80273.977.09131 1.954.17334 2.939.22803.037 0 .074 0 .111.00195.024.00147.047.00391.071.00733.267.01806.544.02685.812.03613h.155l.398.01123c.187.0044.375.00733.562.00733h.086.839.276c.225 0 .458-.00928.683-.01856.095 0 .182 0 .277-.00928.311-.00879.622-.02685.933-.04541l1.366-.08203c.607-.03613 1.214-.06445 1.819-.09277l.92-.04395 1.375-.05468c.924-.03663 1.858-.06397 2.783-.08204.384-.00439.892-.01367 1.4-.02295.507-.00927 1.015-.01855 1.4-.02294h1.244v-.00928c.899 0 1.798 0 2.697-.00879.294 0 .589-.00781.883-.01563.155-.00439.31-.00878.465-.01171 1.962-.05469 3.924-.10059 5.886-.13672 3.924-.08252 7.856-.12793 11.789-.12793 1.962 0 3.924.00927 5.886.03662 1.249.01416 2.499.03027 3.75.04638 1.197.01563 2.396.03126 3.596.04493 6.119.07275 12.238.11816 18.357.09082 1.228 0 2.446-.00879 3.674-.01807 1.339-.00928 2.679-.00928 4.027-.00928h4.028c2.688 0 5.367 0 8.055-.08203l.071-.00195c.867-.02686 1.742-.05371 2.608-.08936.942-.04541 1.884-.0913 2.818-.15478.268-.01856.536-.03662.803-.0459l.986-.05469c.086 0 .164 0 .25-.00879.337-.01855.666-.02783 1.003-.03662h.052l1.063-.02734c.89.12744 1.754.28271 2.601.47412 3.544.80273 7.295 1.02148 11.141 1.14941 4 .12696 7.999.27101 11.998.41501 4.892.1758 9.785.3516 14.682.4971 7.429.2222 14.865.3779 22.302.5342l2.4.0498c.278.0063.559.0151.84.0239 1.803.0562 3.634.1138 5.166-.5259 2.891.0874 5.786.1734 8.676.2593 8.3.2471 16.61.4942 24.91.7715 2.39.0796 4.75-.0386 7.1-.1572 1.44-.0718 2.87-.1436 4.31-.1709.66-.0127 1.32-.0342 1.98-.0557 1.24-.0405 2.48-.081 3.71-.063 8.03.1187 16.05.228 24.07.2735 3.26.2392 6.57.2138 9.87.1884.86-.0068 1.72-.0132 2.58-.0151 3.66-.0064 7.32-.0518 10.97-.0967 1.39-.0171 2.77-.0342 4.15-.0493 5.04.064 10.07.1372 15.11.146.96 0 1.91.0068 2.87.0137 3.21.0224 6.42.0449 9.58-.187 8.03-.0362 16.04-.1548 24.07-.2735 1.23-.018 2.47.0225 3.71.063.66.0215 1.32.043 1.98.0557 1.4.0302 2.79.1001 4.19.1699 2.39.1196 4.79.2393 7.22.1582 11.2-.3648 22.39-.6841 33.59-1.0308 1.52.6436 3.34.585 5.14.5269.29-.0093.58-.0186.87-.0249l.19-.0044c7.47-.1538 14.95-.3076 22.41-.5156 7.46.208 14.93.3618 22.4.5156l.2.0044c.28.0063.56.0151.84.0239 1.8.0562 3.63.1138 5.16-.5259 2.9.0874 5.79.1734 8.68.2593 8.3.2471 16.61.4942 24.91.7715 2.39.0796 4.75-.0386 7.1-.1572 1.44-.0718 2.87-.1436 4.31-.1709.63-.0132 1.27-.0337 1.9-.0542 1.59-.0513 3.17-.1026 4.75-.0371 10.57.438 21.44.5293 32.2.292 7.16-.1582 14.34-.0689 21.52.0205 4.02.0503 8.05.1005 12.07.1069.89.0015 1.78.0078 2.66.0142 5.46.0395 10.92.0795 16.12-1.0811 1.08-.2466 2.51-.2373 3.76-.1919 3.14.1216 6.21-.0815 9.29-.2842 1.53-.101 3.07-.2021 4.61-.26316 1.11-.04492 2.14-.23779 3.16-.43066 1.49-.27832 2.97-.55713 4.72-.39014 1.86.18262 3.69 0 5.51-.22802.6-.00342 1.21-.00782 1.81-.01221 1.12-.00879 2.23-.01856 3.35-.02442l4.47-.02734c1.48 0 2.98-.00879 4.47-.01807 2.03.02247 4.06.03614 6.09.04981 2.06.01367 4.12.02783 6.18.05078h.49c.49 0 .99.00879 1.48.01807.82 0 1.64 0 2.46-.00928 1.14-.02734 2.28-.09131 3.41-.23731l.13-.01855c.09-.01025.17-.01758.26-.01758h.13c.71.03613 1.42.05469 2.12.06348 2.12.01855 4.2-.09082 6.28-.23682.6 0 1.21-.00928 1.82-.01855h.03c1.22-.00879 2.46-.02735 3.69-.04541 6.29-.09131 12.57-.23731 18.86-.39209.82-.01856 1.65-.03662 2.47-.06397.82-.01806 1.65-.03662 2.47-.06396.44.01806.87.03418 1.3.0498.44.01612.87.03223 1.31.05078 2.61.10938 5.22.21875 7.83.30078 2.27.07325 4.55.12793 6.82.16407 3.41.05517 6.82.08252 10.23.07324 3.42 0 6.83-.0459 10.24-.10059.2 0 .38-.01709.57-.03466l.02-.00147.39-.02783.02-.00147c.12-.0083.25-.0166.37-.0166h.19c.26.00879.53.01563.79.02246.28.00684.55.01416.83.02344l1.61.02734c3.62.17334 7.23.20069 10.84.20069h4.82c1.2 0 2.41 0 3.62.00879 2.44.01855 4.89.02734 7.33.02734.71 0 1.42-.00879 2.13-.00879zm-1489.4712 10.4302c.5186-.21 1.1409-.1914 2.0483-.1094v.0093c.2765.018.9075-.0274.752-.0459-.4299-.0596-.3231-.1377-.2173-.2149.1198-.08737.2382-.17379-.4223-.2319-.4322-.03662-.5964-.15527-.3371-.24609.3534-.12695.0463-.21289-.2843-.30469l-.1478-.04199c-.3579-.10352-.7235-.1543-1.1405-.12744-.2074.01318-.4276.04541-.6659.1001-.0951.01806-.3889.00878-.5012-.02784-.4989-.14746-1.2488-.14355-2.2731-.13769-.3065.00146-.6376.00293-.9939.00097.5536.09375.5183.19629.4851.29248-.0347.10059-.067.19434.5779.26417.011 0-.0103.00976-.0462.02294-.0495.01807-.127.04346-.1871.05909-1.0285.26464-.2162.47409.726.66599.7259.1548 2.3163.1914 2.6274.0728zm374.9782-1.46877c2.446.06396 4.9.06396 7.346.06396.066 0 .139.00195.216.00391.389.00927.879.02099 1.037-.17725-.591-.00879-1.182-.02637-1.766-.04394l-.04-.00147c-3.17.00928-6.331.05469-9.5.1001h-.033c.916.00928 1.824.02734 2.74.05469zm150.459.66845c1.145-.00879 2.295-.01758 3.279-.15722h-.008c.242-.02735.691-.02735 1.08-.02735-1.216-.19775-2.774-.28076-4.321-.36328-.453-.02392-.906-.04785-1.349-.07471-.259-.01806-.665.00928-.959.02735-.665.04541-1.979.37402-1.858.45605.155.10059 1.668.19141 2.878.15479.413-.00977.835-.0127 1.258-.01563zm6.279.20752c.293.04541.743.11865 1.209.04541.476-.07275.122-.13672-.276-.1914l-.351-.04737c-.703-.0957-1.399-.1914-2.363-.19873.588.13672 1.15.26416 1.781.39209zm7.009-.32861c.622.07324 1.175.01855 1.625-.146l-.009.00928c.32-.10937-.026-.146-.631-.19141-.522-.04004-1.077-.04345-1.629-.04687-.71-.00391-1.417-.00781-2.044-.08984l-.268.06347c.985.13721 1.936.27393 2.956.40137zm2.192-1.28076c-.087-.05371-.172-.10596.124-.16016l.017-.01855c.078-.00879.156-.02735.234-.03614-2.253-.04297-4.503-.11572-6.755-.18847-2.068-.06641-4.137-.13282-6.209-.17676h-.173c-.214-.00537-.428-.01074-.642-.01416-.14-.00244-.281-.00391-.421-.00391h-.312c-.458-.00927-.916-.00927-1.374-.00927-.161-.0044-.32-.00684-.479-.00782-.155-.00097-.309-.00097-.463-.00097-.112.0249-.205.04882-.28.07324-.144.04736-.215.09765-.204.16357.017.13721-.484.25586-.726.40137.333.01611.655.03516.972.05371.938.05567 1.829.1084 2.831.07422.294-.01855.588-.01855.752.01807.936.20214 2.275.24707 3.618.29199.777.02637 1.556.05273 2.259.10937 1.331.10938 2.921.16407 4.503.146.406 0 .821.00928 1.219 0 .428-.01611.736-.04004.919-.07129.338-.05713.252-.13867-.28-.23877-.225-.03662-.527-.07324-.778-.10937-.242-.03663-.544-.07325-.596-.15528h2.247c.146-.0498.071-.0957-.003-.14062zm.816 3.04147c.112.0088.242-.0273.242-.0273h.008c.026-.0366 0-.064-.25-.064-.057 0-.105.0147-.154.0298l-.054.0156.044.0122c.048.0142.09.0264.164.0337zm374.564-.6255c.08-.0214.161-.0434.241-.0586l-1.063-.0546c.232.2734.523.1948.822.1132zm206.134-.1132-1.06.0546c.08.0152.16.0372.24.0586.3.0816.59.1602.82-.1132zm55.94.0546-1.06-.0546c.23.2734.52.1948.82.1132.08-.0214.16-.0434.24-.0586z" fill="#f6f6f6" fill-rule="evenodd"/></svg>
