<svg fill="none" height="12" viewBox="0 0 1568 12" width="1568" xmlns="http://www.w3.org/2000/svg"><path clip-rule="evenodd" d="m1555.12 3.39307h.05l.02.16455c2.98-.00928 5.96-.01856 8.94-.0459l3.87-.02734v8.51562h-1568v-8.67041c6.93152-.0459 13.8717-.08203 20.7947-.24658 7.6661-.18213 11.4344-.09131 17.9079.8667l1.5989-.10938c3.8202-.24658 7.6403-.45605 11.4605-.58398 2.7052-.25537 5.4449-.38281 8.202-.16406h.1642c4.6239-.00928 9.2564.10058 13.8977.39209.3246.00488.6491.00976.9737.01562.315.00537.63.01221.945.021 7.839.20068 15.7126.32812 23.5603.22802 9.7921-.12793 19.5761-.24609 29.3681-.16406 1.95.01514 3.901.01172 5.852.0083 5.206-.00928 10.416-.01806 15.608.31983 3.259.21923 6.699.31005 9.948.11865 3.198-.18213 6.249-.11865 9.369.05469 1.383.07324 2.783.10937 4.183.14599 2.965.08203 5.938.15528 8.911.22803 1.473-.05029 2.948-.09766 4.424-.14356l3.631-.11181c.545-.01807 1.245-.01807 1.677.09131l3.111-.08203c6.284-.15528 12.567-.30127 18.859-.39209 3.246-.04688 6.493-.07227 9.74-.09815 4.975-.03906 9.95-.07812 14.918-.19385 1.236-.02734 2.472-.04589 3.708-.06396l.034-.10938.424.10938h.008c2.744-.03613 5.488-.0459 8.232-.05567 2.145-.00781 4.29-.01562 6.435-.03564 2.349-.02344 4.698-.04102 7.046-.05859 5.882-.04346 11.762-.08741 17.63-.22412 7.666-.18262 11.434-.09131 17.908.86669l1.599-.10986c7.977-.52881 15.963-.83887 23.957-.72021 7.995-.11866 15.981.1914 23.958.72021l1.599.10986c1.21-.17334 2.325-.32861 3.388-.44726h.026c.7-.08203 1.383-.15479 2.048-.20947h.018l.985-.08204h.043c.657-.05517 1.305-.0913 1.962-.11865h.052c.305-.01758.618-.02636.931-.03515l.046-.00147h.069c.441-.01269.891-.0249 1.35-.03125.225-.00342.451-.00537.681-.00537h.095 1.037.13c.653 0 1.328.00732 2.03.01514l.208.00293h.182c.182 0 .367.00439.555.00879.194.00488.392.00976.594.00976h.225l1.245.02735c4.105.0913 8.219.14599 12.333.18212 1.028.00928 2.057.02784 3.085.02784 3.086.02734 6.171.04541 9.257.07275 1.098.00928 2.195.01807 3.293.01807h1.227.761c3.126.00927 6.251.01855 9.386.05517h.008l.424-.10986.034.10986 1.738.02735c.657.00879 1.313.01806 1.97.03613 4.915.10889 9.83.14844 14.749.18799 1.249.01025 2.498.02002 3.747.03125 2.048.01806 4.105.04541 6.162.07275l4.719.08203c4.711.08203 9.43.19141 14.14.31006 3.777.09131 7.562.1919 11.339.2832 1.753-.04638 3.508-.09033 5.264-.13427 1.717-.04248 3.434-.08545 5.151-.13037l1.046-.02735c.45-.01221.903-.02392 1.358-.03808.244-.00782.489-.01612.733-.02588.241-.00635.478-.0166.714-.02832l.332-.01758 1.167-.05469c1.555-.06348 3.103-.1001 4.658-.1001 1.167.00928 2.343.03662 3.544.10938l1.227.05469c.821.02734 1.651.04589 2.489.04589 2.083 0 4.192-.08203 6.232-.21923 4.468-.29151 8.937-.31885 13.413-.31885h1.34 5.367 1.34c1.608-.01807 3.216-.02442 4.824-.02686.838-.00097 1.676-.00097 2.514-.00097 7.328.00927 14.656.10058 21.993.19189h.029c1.297.01807 2.595.02832 3.893.03272.664.00244 1.328.00341 1.992.00341.493 0 .984-.00244 1.474-.00439.491-.00195.981-.0044 1.474-.0044l2.947-.02734c3.932-.0459 7.865-.12793 11.78-.22803.225-.01855.449-.01855.674-.01855.666-.01807 1.34-.02734 2.014-.02734h1.34c.214.00439.427.00683.64.00781.232.00146.464.00146.699.00146 2.299-.05469 4.59-.11865 6.88-.20996.907-.04541 1.824-.08203 2.74-.13672l1.365-.08203c.294-.01855.588-.03662.882-.04541.095-.00928.181-.00928.276-.00928.208-.00927.415-.01855.623-.01855h.302.614.268c.25.00928.51.01855.76.01855h.113c.219.00635.435.0127.652.02246.09.00391.181.00831.272.01368h.044c.116.0039.234.00927.352.01562.172.00879.343.01953.512.03028.036.00634.072.0083.108.00878l.048.00049.777.05469c.028.00586.056.00781.084.0083l.046.00049c.294.01855.588.0459.882.07324.613-.00928 1.244.01807 1.849.04541 2.766.11865 5.471.18262 8.202-.20068 2.878-.41016 5.791-.61084 8.704.10937.396.09668 1.019-.02002 1.637-.13525.259-.04834.517-.09668.757-.12891h-.139c7.546-.37402 15.091-.17334 22.619.146 1.131.0498 2.242.21094 3.352.37207.51.07422 1.019.14844 1.531.21142l-.035-.07275c.208.09131.424.18213.631.24609.657-.01806 1.314-.04541 1.971-.07275.078-.03662.164-.08252.242-.12793l-.044.06397h1.254.052c5.116-.20996 10.267-.27393 15.418-.31006 1.003-.00928 2.014-.01856 3.017-.01856.501 0 1.004-.00439 1.508-.00927.503-.0044 1.007-.00879 1.508-.00879.51-.00928 1.011-.00928 1.513-.00928.51-.00879 1.011-.01807 1.512-.01807.329-.00927.657-.00927.985-.00927.493-.01807.986-.01807 1.478-.01807h.493c1.642 0 3.276.05469 4.883.25537.085.01172.17.02393.255.03076.045.00391.089.00586.134.00586h.13c.354-.01855.708-.03662 1.054-.0459h.311c.251-.00879.51-.00879.761-.00879h.311.942.095l1.046.02735h.259c.268.01806.536.02734.804.03662.095.00879.181.00879.277.00879l.95.05468h.069c.363.02735.726.0459 1.089.07325h.095c.338.02734.675.04541 1.012.07275h.086c.832.06055 1.661.1294 2.49.19824.42.03467.84.06934 1.261.10303h.052c.138.00928.276.02051.415.03174.138.01123.276.02246.415.03174.077-.39356 1.365-.21924 1.95-.14014l.167.02197c3.976.4834 7.865.5835 11.806-.10058 1.184-.20069 2.533-.20996 3.475.3833.095.06347.207.11865.311.17334 3.751-.07324 7.485-.22803 11.227-.3833l.735-.02735.734-.02734c.277-.00879.557-.02002.836-.03125.295-.01172.591-.02344.884-.03272.13-.00927.251-.00927.372-.00927.315-.00879.631-.02051.946-.03174.316-.01123.631-.02295.946-.03174.12-.00537.239-.01074.358-.01465.08-.00244.159-.0039.239-.0039.404-.00928.808-.021 1.211-.03272.383-.01123.766-.02246 1.148-.03125 1.945-.44678 3.985-.37402 5.981-.10937 1.118-.01416 2.236-.02588 3.354-.0337 1.051-.00732 2.103-.01171 3.154-.01171h.571 1.875 1.383c.674.00927 1.348.01806 2.022.01806.346 0 .69.0044 1.033.00879.344.00488.687.00977 1.033.00977.328.00879.657.00879.985.00879.986.00927 1.962.02734 2.948.04589.212.0044.425.02051.638.03663.211.01562.421.03173.632.03613h.095.19c.666-.01807 1.323-.03613 1.98-.04541h.198c.207-.00293.413-.00684.62-.01074.424-.0083.849-.01661 1.273-.01661 1.729-.0913 3.466-.17334 5.203-.20996 3.141-.06494 6.291-.02832 9.441.0083 1.287.01465 2.574.0293 3.86.03711l-.129.07325c1.109-.29248 2.315-.33496 3.564-.37891l.109-.00439c3.306-.10792 6.541.14599 9.763.39892l.971.07568c6.351.49415 12.755.53028 19.154.56641 3.285.01856 6.568.03711 9.843.11768.761.00927 1.979.01806 2.74.01806.864-.00879 1.711-.00879 2.532-.02734.303-.00928.519.01855.545.0459.008.01806-.095.03613-.216.05469-.104.01806-.242.03613-.381.03613 1.66.03662 3.311.08252 4.97.11865-.078-.00879-.156-.01807-.259-.01807-.579-.02734-.804-.12793-1.755-.05468-.268.01806-.484 0-.613-.02735-.095-.01855-.101-.03711-.032-.05322.032-.00732.08-.01416.144-.02002.484-.04541.985-.1001 1.538-.13672 2.559-.18262 5.238-.3374 8.444-.3374 1.763 0 3.535-.02734 5.221-.06397 1.382-.02441 2.756-.03027 4.126-.03613 1.183-.00537 2.362-.01074 3.54-.02783h.052c.09-.04102.183-.08447.276-.12793.093-.04297.186-.08643.277-.12744.128-.06006.264-.11182.405-.15674.116-.03711.235-.06982.355-.09863-1.218.11865-3.249.09131-3.794-.04541-.169-.04102-.446-.07569-.761-.10791-.31-.03174-.658-.06104-.976-.09278-.139-.01709-.281-.02441-.423-.02441-.159.00049-.317.00977-.467.02441-.7.06348-1.755.06397-2.282.03662-1.124-.06396-2.005-.04589-2.999.01807-.527.03662-1.046.04541-1.366-.01807-.363-.07324-.994-.07324-1.711-.07324-.677.00733-1.355.00879-2.032.01026-1.007.00244-2.013.00439-3.015.02636-1.997.04541-3.993.00879-5.998.01807-.683 0-1.331.00928-1.997.02734-.302.01856-.553.0459-.925.01856-1.845-.12305-3.538-.03272-5.146.05322l-.549.02881c-1.573.08203-3.155.15479-4.797.21875.709-.05469 1.374-.10938 1.996-.17334 1.228-.11865 2.732-.20068 4.382-.25537.579-.01807 1.141-.02734 1.496-.09131.183-.03662.46-.04785.762-.04883.294-.00097.611.00781.888.01221.761.00928 1.478.01855 2.126-.03613.415-.03662.891-.03662 1.357-.03662 2.369 0 4.745-.04541 7.113-.01807l.315.00098c.453.00097.942.00244 1.284-.01954.67-.04248 1.4-.06738 2.128-.09179.823-.02783 1.642-.05567 2.367-.10889h.008c1.245-.01807 2.446-.02734 3.682-.07275 1.245-.0459 2.705-.05469 4.028-.02735 1.97.03614 3.828-.0459 5.739-.06396.606-.00586.432-.03125.231-.06153-.106-.01562-.22-.03222-.231-.04785 1.642 0 3.284 0 4.9.01807 2.403.02734 4.797-.00928 7.191-.05469.353-.01123.706-.01562 1.061-.01709.219-.00097.438-.00097.659-.00097 3.163-.00928 6.266-.08204 9.403-.11866 2.351-.02734 4.728-.00927 7.105-.02734.795-.00928 1.028.03662.907.10937-.025.01661-.1.03223-.178.04834-.137.02784-.281.05713-.176.09766 1.988-.03662 4.044-.03662 5.963-.10059 1.634-.04541 3.138-.03613 4.59 0 1.674.03907 3.204-.00097 4.756-.04199l.827-.02148c.752-.01856.83-.08203 1.037-.13721.268-.07275.752-.09082 1.443-.05469.443.02246.868.04834 1.293.07422 1.299.07862 2.586.15625 4.299.13574-.146.07276-.599.07276-.961.07276h-.007c-3.708.05517-7.441.10986-11.14.13721-.927.0083-1.86.02587-2.795.04345-2.143.04004-4.3.08106-6.436.01123-.51-.01855-1.348-.01855-1.858 0-1.435.04541-2.748.02735-3.768-.08203-.692-.07324-1.496-.10058-2.455-.07324-.76.02734-1.521.02734-2.29.02734-1.634-.01806-1.936-.01806-2.178.12793-.164.09131-.674.10938-1.331.11866h-1.409l-.058.00146c-1.031.02686-1.949.05078-2.526-.08398-.161-.04004-.549-.06348-1.03-.08106-.396-.01416-.855-.0249-1.304-.03711-.005.07227.438.10059.869.12842.329.021.652.0415.765.08105 1.59-.04541 3.198.07325 4.796.46534.397.09668 1.022-.02002 1.64-.13575.258-.04834.515-.09668.755-.1289h-.139c7.545-.37403 15.091-.17334 22.618.14599 1.029.0459 2.032.18262 3.043.32862 1.314-.00928 2.619-.00928 3.932.00879.329.00927.761.00927.994-.00879.731-.05713 1.451-.05274 2.215-.04834.212.00097.427.00244.646.00244h1.003c.587-.59277 1.452-1.11279 2.437-1.59619.086.4834.069 1.32275.302 1.32275.021-.00976.08-.01514.163-.02246.466-.0415 1.685-.15039.987-1.4917.13-.1914.259-.36474.371-.50195.809.21631 1.866.52832 2.852.81933 1.387.40967 2.632.77735 2.844.77735.959-.40137 1.21-.3833 2.705-.32862 1.799.07178 2.792-.13476 3.776-.33886 1.015-.21094 2.02-.41992 3.891-.31787 1.641.08691 2.944-.1211 4.262-.33155 1.168-.18603 2.347-.374508 3.784-.361813-.285-.018067-.579-.036621-.864-.072754l1.507-.011231c.651-.004394 1.253-.007324 1.855-.007324.276 0 .553.009278.51.045899-.026.018066-.234.04541-.346.04541-.316-.004883-.643.001465-.978.008301-.26.004882-.525.009765-.794.009765 2.403.078617 4.499.461427 6.601.845707.34.06201.68.12402 1.022.18505h.051c1.746-.00878 3.483-.01757 5.195.02784.84-.04785 1.668-.03076 2.507-.01367.602.0122 1.21.0249 1.832.01367.489-.00684 1.169.01513 1.856.05908.259.0166.52.03662.771.05908-1.112.01026-2.081.01807-2.985.02393l-2.097.01269h-.406c-1.35-.04541-2.687-.02148-4.023.00244-.537.00977-1.074.01953-1.612.02491.398.10986.553.48339.994.56591.089.01661.379.02979.818.0376.284.00488.629.00781 1.023.00781h.052c2.801-.21533 5.589-.13671 8.38-.05761 1.109.03125 2.219.06299 3.331.07568 3.016.02734 6.033.06397 9.049.10059l4.529-.05469 4.529-.05469c1.105-.01318 2.211-.04443 3.317-.07568 2.793-.0791 5.589-.15821 8.394.05713h.052c.667 0 1.187-.0083 1.517-.02149.16-.00635.27-.01465.32-.02392.23-.04493.38-.17188.53-.29785.16-.1294.31-.25782.55-.29493.32-.05517.65-.11865.98-.17383h-.1-.41c-.12-.00195-.27-.00195-.41-.00195-.48-.00049-1-.00097-.96-.0708.04-.05615.33-.06348.67-.06103.26.00195.55.01025.77.00634.25-.00634.51-.0039.77-.00195.13.00098.26.00195.39.00195l.46-.08203h-.27c-.38 0-.67-.02734-.58-.06396.1-.04541.53-.02735.82-.02735.15.00928.3.01807.45.01807 2.14-.38281 4.3-.756836 6.81-.756836 1.48-.009277 2.94-.118652 4.4-.255371-2.95.018067-5.9.027344-8.85.018067h-.81c-.34-.007325-.64.014648-.93.036621-.42.03125-.83.0625-1.37.009277-.41-.04541-.9-.037598-1.4-.029785-.3.004394-.61.008789-.91.001953-.56-.018066-1.14-.021973-1.73-.02002-.879.003418-1.778.02002-2.652.02002-4.01.009277-8.047.036621-12.066.082519-.988.013672-1.967.002442-2.95-.008789-.985-.011718-1.974-.023437-2.978-.009765-.251.009277-.528 0-.778 0-.997.018554-1.628-.027344-1.893-.136719 1.262.036621 2.351.027344 3.63-.018066 1.4-.043946 2.966-.041016 4.508-.038086l1.136.001465c.645 0 1.294.000976 1.943.001953 1.299.001953 2.6.004394 3.873-.001953.32 0 .643.000976.968.001953 1.154.002929 2.335.006347 3.475-.029297 1.011-.027344 1.573.04541 2.134.118652.461-.121582 1.29-.176269 2.47-.164062 1.21.018066 2.41.027343 3.61-.018555.81-.036621 1.56.009277 2.37.009277.95-.002929 1.9-.002441 2.85-.001953 2.14.001465 4.27.00293 6.35-.034668.82-.018066 1.65-.018066 2.48-.018066.56-.054688 1.13-.100586 1.7-.136719l-.27.001465c-1.86.008301-3.73.016601-5.6.016601-2.51-.009277-5.09.009278-7.6.054688-1.36.027344-2.68.027344-4.01.009277-1-.018554-1.99-.027343-3.01 0-1.063.036133-1.072.027344-.942-.127929l.025.001464c.687.026856 1.337.052735 2.057-.001464.3-.018067.67-.012207 1.04-.00586.19.00293.37.00586.55.00586 1.89.009277 3.77-.018067 5.64-.036133 3.04-.027832 6.06-.045899 9.05 0 .38.018066.98.008789 1.35 0 1.52-.045899 3.02-.073242 4.45-.027832.7-.020996 1.39-.032715 2.08-.039063.5-.004883 1-.006347 1.49-.006347h1.98c1.14 0 2.28-.018067 3.42-.063965.45-.018067.89 0 1.28.045898 2.14-.009277 4.29-.009277 6.43-.009277.54 0 1.06-.00586 1.53.018066.13.006836.25.015625.37.027344-.18.063965-.79.063965-1.13.063965-.52 0-1.04.003418-1.56.008789-1.54.016601-3.07.050781-4.61.064453.15.03418.3.077148.45.120117l.02.007324c.81-.009277 1.63-.009277 2.44-.009277.65-.004883 1.28.004395 1.9.013184.5.007324.99.014648 1.49.014648 1.29.014649 2.57.005859 3.85-.00293l.94-.006347.29-.001953c.19-.001953.39-.004395.51.001953.94.060058 1.9.037109 2.84.01416.5-.011719.99-.023438 1.49-.023438l.78-.004394c3.3-.01709 6.59-.03418 9.8.049805.26.018554.62.027832.77.018554 1.04-.065918 2.11-.055664 3.2-.044922.71.006836 1.43.013672 2.15-.000488 2.03-.045898 4.2-.073242 6.39-.055176 1.69.018555 3.49.018555 5.23 0 .55-.003906 1.1-.006347 1.65-.007324.66-.001465 1.32-.001465 1.99-.001465.32 0 .65.005371.98.010742.86.014649 1.73.029297 2.54-.05664.06-.004883.22-.006836.39-.006348.14 0 .28.002442.38.006348 1.09.04541 2.22.035644 3.35.026367.46-.003906.92-.007812 1.38-.007812.35 0 .7-.004883 1.05-.010254.71-.010254 1.44-.020508 2.18.010254-.47-.118653-1.4-.155274-2.49-.12793-1.09.018555-2.17.018555-3.23 0-1.22-.018067-2.41-.018067-3.61.027344-.52.018066-1.16.027343-1.59 0-1.25-.072754-2.59-.054688-3.92-.027344-.54.011719-1.05.004883-1.55-.001465-.29-.003906-.57-.007324-.87-.007324-.21 0-.39-.018555-.34-.036621.06-.027344.32-.054688.57-.036621.77.054687 1.28.04541 1.73-.045411.2-.045898.7-.045898 1.09-.045898.59 0 1.17-.000977 1.76-.001953 1.16-.001953 2.33-.004395 3.49.001953 1.18.009277 2.39-.0180664 3.59-.0180664 1.28-.0058594 2.56-.0126953 3.85-.0195313 2.7-.0146484 5.4-.0292968 8.09-.0351562.96 0 1.98.0546875 2.88.0546875.38 0 .78-.0146484 1.2-.0297852.52-.0190429 1.06-.0390625 1.63-.0341796.65.0063476 1.3 0 1.97.0063476.33.0029297.66.0087891 1 .0209961.46.0195313.99.0029297 1.54-.0141602.5-.0151367 1.02-.03076168 1.53-.0224609.12 0 .25-.0043945.38-.00878906.14-.00439453.28-.00927734.41-.00927734.34 0 .75.00927734.89.0366211.2.0439453-.13.0585937-.43.0717769l-.21.010254-.08.008789c-.14.012696-.24.023438-.24.045899.57.036621 1.24.072754 1.99.072754l.86.005859c2.68.01709 5.35.034668 8.06-.014648.86-.009278 1.88-.018555 2.58.04541-.03.036621-.21.054687-.39.054687-1.71-.011718-3.35.028321-5 .068848-.94.022949-1.89.045898-2.85.059082-1.19.012207-2.36.007813-3.54.003906-.59-.001953-1.18-.003906-1.78-.003906-.96.004395-1.93.009766-2.9.015137-2.86.015136-5.73.030273-8.6.030273-2.38 0-4.75.045899-7.14.045899h-.2c-1.86-.027832-3.7 0-5.5.054687-.54.016113-1.01.000488-1.48-.015137-.33-.010742-.66-.021484-1.03-.021484-1.59-.010742-3.17-.002441-4.75.006348-1.06.005859-2.12.011718-3.17.011718-.72-.003906-1.45.003418-2.19.010743-.86.008789-1.73.017578-2.58.007812-1.3-.018555-2.62-.018555-3.92-.018555-2.27.00928-4.5-.027343-6.76-.027343-2.16 0-4.34.036621-6.47.073242-1.38.019531-2.7.015625-4.02.011719-.54-.001465-1.08-.00293-1.62-.00293-1.26.009277-2.59-.054688-3.7-.027344-1.12.029297-2.21.032227-3.31.035156-.63.001954-1.26.003907-1.89.010743-1.27.018066-2.55 0-3.82-.018555-.87-.018066-1.74-.008789-2.64.036621-.2.009277-.42.018066-.64.018066l.04.014649c.1.041015.2.081543.29.122558.72.310055 1.44.620115 2.1.948245.43-.00879.84-.00879 1.26-.00879.67-.00733 1.33-.02051 2-.03369.98-.02002 1.96-.03955 2.97-.03955.53 0 .92-.00879.62-.08203-.18-.03956.22-.03809.5-.03663l.12.00049 2.45.08203c.2.00733.41.01612.61.02491.8.03466 1.61.06982 2.57.01123.06-.00391.15-.00586.24-.00733.12-.00146.25-.00146.34-.00146 1.49.04931 3.02.03955 4.56.02978 1.02-.00683 2.04-.01318 3.05-.00244h.81c2.28.07031 4.52.02344 6.75-.02344.94-.01953 1.89-.03906 2.83-.0498.47-.00733.94-.03955 1.3-.00537.08.00732.16.01806.23.03271h.77c1.12-.02929 2.19-.01123 3.25.00635.26.00439.52.00879.78.01221.1.00439.21.00634.31.00732.11.00147.2.00147.27.00147 1.61-.07666 3.23-.06153 4.85-.04639.87.0083 1.75.0166 2.62.01025.93-.00927 1.81 0 2.77-.03662.87-.03662 1.96 0 2.96 0 1.02 0 2.02 0 3.04-.01806.7-.01368 1.38-.00489 2.05.00732.69.0127 1.38.02881 2.09.02881l.35.00098c.55.00097 1.07.00195 1.61-.02832 1.21-.06348 2.36-.06397 3.7-.03614 1.66.03614 3.49.01807 5.2-.00928 1.24-.01904 2.44-.00732 3.63.00489.51.00537 1.02.01074 1.54.01318 1.19.00928 2.42.05469 3.8.05469-.82.11865-1.88.11084-2.85.10351-.22-.00146-.44-.00293-.65-.00293-.47.00293-.94.00293-1.41.00293-.94 0-1.88 0-2.8.02442-.28.01123-.51.00488-.74-.00147-.14-.0039-.28-.00781-.43-.00781s-.31-.00195-.47-.00391c-.32-.0039-.64-.0083-.93.00391-2.06.06787-4.12.05518-6.17.04199-1.25-.00781-2.51-.01562-3.76-.00537-.94.01807-1.88.01807-2.82.01807-4 .01855-8 .06396-11.96.05469-1.88-.00879-3.77 0-5.65.00927-1.88.00928-3.77.01807-5.65.00928l-.92-.00781c-1.32-.01123-2.73-.02393-4.06.03515-.54.02735-1.08 0-1.61 0-.84-.01855-1.6-.05468-2.52 0-.42.02149-.87.00733-1.34-.00732-.32-.00977-.65-.02002-.99-.02002-4.92.03613-9.83.04541-14.74.04541-1.91 0-3.85.01758-5.77.03516l-.13.00146c.74.3833 1.4.79346 1.89 1.25879 1.5-.00635 3.01-.01367 4.52-.02099 2.93-.01368 5.87-.02784 8.81-.0337 4.78-.01269 9.56-.0166 14.35-.0205 2.26-.00196 4.53-.00391 6.8-.00684 4.82-.00928 9.65-.03662 14.45-.02734 5.51.01806 11.02 0 16.53-.03662 2.18-.01612 4.36-.02295 6.53-.02979 1.48-.00439 2.96-.00879 4.44-.01611.98-.00586 1.96-.01075 2.93-.01563 2.01-.01025 4.02-.02051 6.02-.03906 1.26-.00879 2.4-.03613 3.42-.14551.95-.10058 2.61-.11865 3.99-.11865 3.02.00879 6.04.00879 9.08 0 1.27-.00391 2.53-.01514 3.79-.02637 1.59-.01416 3.17-.02832 4.75-.02832 1.73-.00928 3.35-.03662 4.98-.09131.4-.01806.8-.01806 1.2-.01806h.04c2.16.01806 4.33-.01856 6.52 0 1.77.00879 3.65-.02784 5.44-.06397.72-.01855 1.35-.01855 1.95 0 .52.02735 1 .02735 1.56.02735 1.41-.00928 2.76-.03663 4.23 0 1.06.02734 2.23.00878 3.4-.00928h.02c.38-.2461.81-.47412 1.26-.70215-.17.03613-.36.04541-.58.04541-.88-.03662-1.57.00928-2.3.04541-.51.01855-.98.01855-1.05-.04541-.04-.05469.15-.1001.78-.1001h3.24c.18-.09131.36-.17334.54-.25586-1.24 0-2.47-.00879-3.66.0459-.46.01807-.92.00928-1.39 0-.46-.01807-.97-.01855-1.31.00879-1.59.11523-3.08.06934-4.54.0249-.28-.00879-.56-.01758-.84-.0249-.83-.01807-1.39-.02734-1.96.0459l-.05.00537c-.25.02832-.65.07422-.88.04004-.48-.07861-1.09-.06348-1.68-.04883-.36.00879-.71.01758-1.01.00342-.94-.03662-1.94-.04541-2.9-.07276-.29-.00927-.63 0-.87.01807-.31.02734-.85.03662-1.19.03662-1.51-.02881-3.04-.02197-4.57-.01465-.9.0044-1.81.00879-2.71.00537-.48-.00292-.95-.00341-1.43-.00341-1.1-.00049-2.19-.00098-3.3-.03321-1.01-.03613-2.24-.01806-3.35 0-1.31.01954-2.62.021-3.92.02198-1.12.00097-2.24.00195-3.36.01464-.58.0044-1.06-.01562-1.5-.04296-.4-.02442-.78-.0542-1.18-.07569-.6-.03662-1.28-.06396-1.32.05469-.01.03564-.2.03223-.39.0293l-.16-.00196-8.53.10938h-2.22c.2-.03809.48-.06104.76-.0835.25-.0205.5-.04052.66-.07129.48-.0913 1.64-.06396 2.36-.03662 1.16.04541 2.2.02735 3.31-.00927.24-.00489.5-.0127.76-.01856.21-.00488.42-.00879.62-.00879 1.55.01856 2.98.01856 3.95-.13672.54-.00634 1.07-.02051 1.6-.03515.97-.02637 1.95-.05274 2.97-.02881.39.00928.73 0 .81-.03613.09-.0459-.23-.06397-.62-.05518-.58.00928-.88-.01807-1.18-.05469 1.61-.114256 3.38-.126951 5.14-.139158.78-.005371 1.55-.010742 2.31-.024903.92-.018066 1.89-.009277 2.84-.027343 2.64-.05127 5.28-.054688 7.92-.058106 2.52-.003418 5.03-.006836 7.54-.051269 1.98-.036621 3.98-.045899 5.94.018066.15 0 .34-.00293.54-.005859.44-.00586.93-.012696 1.24.005859 1.44.080566 3.03.081543 4.62.08252.94.000488 1.89.000976 2.8.018066l.25.00293c.51.005371.92.009277.81.08789-.04.027837.27.055177.69.055177.36 0 .27-.02734.36-.055177.47-.127441.96-.145508 1.77-.054199l.54.054199.49-.21875c.64-.273437 1.36-.501465 2.2-.61084-.45.008789-.92.008789-1.39.008789-1.47.018555-3-.008789-4.46-.063964-.49-.0170902-1.03-.021973-1.59-.0273441-.65-.0058594-1.31-.0117187-1.93-.0361328 1.76-.03369141 3.49-.02783204 5.21-.0224609.63.0019531 1.27.0039062 1.9.0039062 1.03 0 2.06-.0009766 3.09-.0019531 2.07-.0019531 4.14-.0039063 6.2.0019531 4.64.0185547 9.3.0185547 13.95.0185547.47 0 .97-.0092773 1.38-.0185547 1.24-.0332031 2.4-.00927734 3.56.0146484.76.015625 1.51.03125 2.28.03125h2.43c.39-.0092773.69-.0273437 1.12 0 .72.0454102 1.54.0454102 2.41-.0092773.53-.0366211 1.24-.0366211 1.95-.0366211.87.0112305 1.75.0151367 2.63.0185547 1.22.0048828 2.45.0097656 3.66.0361328 2.07.0458981 4.21.0458981 6.37.0185547.97-.0092774 2.02.0273434 3.08.0273434 1.22 0 2.42.021485 3.63.043457.87.015625 1.74.03125 2.61.038575.67 0 .88.082031 1.57.063964.84-.055664 1.66-.036621 2.49-.017578.52.012207 1.04.024414 1.57.017578h.18c.27.138184 1.3.153809 2.33.168946.53.007812 1.06.015625 1.49.040527.88.054688 1.97.061035 3.06.067383.55.00293 1.11.005859 1.63.015137.91.018066 1.82.027343 2.73.04541-.06.027344-.11.054687-.15.082031-1.07-.009277-2.15-.018066-3.24-.018066-.64-.004395-1.29-.006836-1.94-.012207-.69-.005371-1.38-.014649-2.03-.033692-1.67-.054687-3.41-.04541-5.11-.054687-.97-.008789-1.83 0-2.52-.072754-.15-.016114-.35-.025879-.55-.027832-.13-.000977-.27.001953-.39.009277-.56.036621-1.07.024414-1.58.012207-.26-.005859-.51-.012207-.77-.012207-.99 0-1.94-.019531-2.89-.039062-1.21-.024414-2.41-.048829-3.67-.033692-.92.009278-1.65-.04541-2.44-.073242l-.16-.008301c-.34-.016601-.7-.034668-.96-.019043-1.23.078125-2.43.057617-3.63.03711-.62-.010743-1.23-.021485-1.85-.018555-1.15.008789-2.22.027344-3.04-.063965-.82.057129-1.63.03418-2.44.011231-.73-.020508-1.46-.041016-2.21-.001954h-.39c-1.16-.064453-2.42-.061523-3.68-.058105-.7.001953-1.4.003906-2.08-.005859-.36-.009278-.63-.009278-.92.018066-.98.082031-2.33.036621-2.94 0-.52-.033203-.95-.027344-1.36-.021973-.15.001953-.29.003907-.43.003907-.51.009277-.99.054687-1.23-.027344-.06-.018067-.29-.018067-.49-.018067-.85.030274-1.67.02002-2.49.009766-.41-.004883-.82-.009766-1.24-.009766-.27 0-.61-.009277-.79 0-.89.063477-1.66.109375-2.37-.018554-.08-.012207-.45-.007813-.83-.003907-.19.001954-.38.003907-.53.003907h-2.91c1.21.018554 2.42.045898 3.64.109375 1.25.069336 2.49.187988 3.72.30664 1.85.177735 3.69.354004 5.55.359375 1.98.009278 3.73.237301 5.44.520021 1.15.02734 2.35.03662 3.59 0 .89-.02734 1.58.03662 2.19.07275.55.03662 1.06.0459 1.66.0459 1.1-.01123 2.2-.00683 3.3-.00244 1.55.00635 3.09.01221 4.64-.0249.8-.01856 1.65.00927 2.39.01806 2.54.04786 5.13.06788 7.71.08789 2.35.01856 4.7.03711 7.01.07618.52.00927 1.09.01855 1.61-.00879.4-.01221.8-.0083 1.19-.00391.2.00195.4.00391.6.00391.2.00244.39.01367.59.02539.48.02734.98.05566 1.48-.03467.02-.00439.27-.00244.57.00391.32.00683.69.01855.9.03271.8.05469 1.4.06397 1.81-.07324.8.11865 1.11.27392 2.81.17334-.17-.12451-1.12-.18848-2.05-.25098l-.07-.00439c-.64-.04102-.35-.0708-.05-.10205.23-.02393.47-.04834.31-.08008-.13-.01856.53-.02734.96-.01856l1.23.03467c.94.02783 1.9.05567 2.93.07471 0 .16455.07.27392.18.35596-.31-.00928-.62-.01807-.65-.01807-.33.1001-1.39.05469-1.93.1001-.22.02734-.18.03662.08.06396.69.06397.61.10938-.21.11865h-.02c-.93.00879-1.88.01807-2.8 0-1.4-.03369-2.83-.04199-4.26-.05029-1.29-.00732-2.58-.01514-3.84-.04101-.3-.00928-.65 0-1.22 0 .62.14599 1.57.21875 2.94.2373.87.01074 1.73.02393 2.59.03711 2.04.03125 4.08.06299 6.23.06299-.35.12793-1.29.12793-2.11.10937-1.38-.03466-2.81-.04345-4.24-.05224-.82-.00537-1.64-.01075-2.44-.02051-2.2-.02881-4.4-.05371-6.69-.07959l-4.18-.04834c.34-.00928.6-.02783.84-.04492.47-.03369.85-.06055 1.5-.00049.41.03662 1.33-.04541 1.84-.09131.27-.01807-.13-.05469-.38-.07275-1.56-.13721-3.45-.13721-5.41-.13721-1.98 0-3.9-.01807-5.84-.03613h-.02-1.21c-2.11.04052-4.2.02295-6.27.00586l-.75-.00586c-1.08-.00928-2.15-.00928-3.23-.00928-1.07 0-2.15 0-3.22-.00928h-.47c.62.11865 1.22.22803 1.84.32862.24.03613.39.16015.54.28759.03.03223.07.06446.11.09571.33-.00586.66-.00489.94.0122.18.01026.34.02686.49.05127 1.15-.00879 2.31-.00927 3.46-.00927l.63-.00098c.87-.00147 1.74-.00244 2.6.01953.37.00928.81.00928 1.18-.01855.23-.02735.51-.04541.73-.02735 1.11.09033 2.43.08936 3.75.08887.69-.00049 1.37-.00098 2.03.01172 1.02.01953 2.11.02099 3.21.02197.94.00098 1.87.00195 2.76.01465.76.01269 1.54.01855 2.31.02441 1.43.01123 2.87.02246 4.22.07569.32.00927.68.01367 1.06.01318.37 0 .75-.00439 1.1-.01318.91-.02735 1.8-.01807 2.6 0 .92.01953 1.86.02099 2.8.02197.81.00098 1.61.00195 2.4.01465.32.00732.63.01172.94.01611.48.00635.96.0127 1.41.0293.67.01855 1.33.02734 1.99.00928.71-.01807 1.42-.00928 1.95.01806.67.04053 1.37.05518 2.08.06299.42.00488.83.00684 1.24.01025 3.05.02735 6.04.06397 8.99.13672.33.01074.69.00879 1.05.00586.25-.00244.5-.00586.75-.00586.57 0 1.14-.00244 1.72-.00488 1.6-.00732 3.21-.01465 4.62.03223 1.45.04931 2.82.04443 4.2.03955.41-.00147.83-.00293 1.25-.00293h3.6c1.28 0 2.6 0 3.72.06347.41.02784.76 0 1.16 0 3.23-.07275 6.48-.11816 9.75-.07275h.01c.94.00928 1.81.01807 2.77-.01807l.17-.00293c.49-.00976 1.09-.02148 1.61.00293.62.03614 1.06 0 1.37-.04589.52-.08204 1.29-.1001 2.11-.1001 3.62-.15528 7.25-.27393 10.88-.31934-2.79-.00928-5.57.01807-8.35.03662-1.18.00879-2.36.01319-3.55.01758-1.22.00488-2.44.00977-3.65.01904-1.12.00782-2.24.01075-3.36.01368-1.51.00341-3.01.00683-4.51.02246-2.1.01806-4.26.00927-6.24.11865-.57.03027-1.07.00391-1.57-.021l-.31-.01562c-1.04-.06348-2.02-.13672-3.35-.06348-1.24-.04443-2.55-.04199-3.86-.03906-.84.00195-1.68.00391-2.52-.00684-.82-.01367-1.67-.01367-2.52-.01367-.86 0-1.72 0-2.57-.01367-.23-.00488-.48-.00684-.72-.00879-.68-.00635-1.34-.0127-1.83-.07324h-.54c-1.5.0664-2.59.00488-3.76-.06153l-.37-.0205c.44-.04395.84-.04102 1.21-.03809l.27.00147c1.56.01806 3.12.04003 4.68.0625 1.63.02343 3.26.04687 4.89.06543 1.26.01806 2.56.01806 3.84.01806 1.75 0 2.01-.02734 2.33-.20068.67-.01807.93.02734 1.22.07275.76.10987 1.63.146 2.98.10987.26-.00928.46-.01856.76-.00928 2.44.10156 5.03.08252 7.61.06347l1.31-.00878h.14c.78.00048 1.76.00146 1.66-.12793-.01-.02735.11-.02735.28-.02735.69.01026 1.33-.00928 1.99-.02929.55-.01709 1.11-.03418 1.72-.03418 2.42.00878 4.88-.00928 7.33-.02735.72-.00488 1.44-.0083 2.16-.01172 2.13-.01025 4.26-.0205 6.37-.06152l.26-.00391c.45-.00634.92-.01269 1.39-.05078-1.1-.02197-2.15-.02051-3.2-.01904l-.81.00098c1-.02735 1.99-.06397 2.99-.09131-.02-.00586-.03-.01514-.04-.02344-.01-.00488-.02-.00977-.02-.01318l-4.61.02734c-1.42.00928-2.85.01953-4.27.02978-2.78.02002-5.56.04053-8.34.05274-1.69.00879-3.39.00879-5.04-.00928-1.05-.01416-2.08.00342-3.11.021-.95.0166-1.9.0332-2.89.02441-3.14-.02734-6.34-.02734-9.51-.03613-1.53 0-3.09-.00049-4.51-.06397h-.38c-.91.05176-1.77.03272-2.63.01368-.65-.01465-1.3-.0293-1.96-.01368-.2 0-.5.00879-.6 0-.38-.03369-.77-.04638-1.22-.05127-.29-.00341-.6-.00341-.95-.00341-.83.00879-1.82 0-2.72-.01856-.59-.00586-1.19-.00781-1.78-.01465-.27-.00293-.55-.00683-.82-.01269-.56-.01074-1.12-.00537-1.67-.00147-.37.00293-.75.00537-1.13.00147l-.4-.00537c-1.14-.01416-2.24-.02832-2.69-.15869-.02-.00928-.07-.01807-.12-.01807.35-.03662.7-.06397 1.06-.09131-.07-.24658-.16-.43799-.27-.61133l.85.01905c1.8.04052 3.6.0815 5.45.0815 1.41.00439 2.76.03418 4.1.06396 1.32.02979 2.64.05909 3.99.06348 1.42.0083 2.63.06299 3.91.09961l.36.00977c.83.0205 1.69.02636 2.54.03271.68.00488 1.37.00977 2.04.02197 1.24.02735 2.62.03662 3.92.03662 1.23-.00927 2.39 0 3.53.03662h.57c.78-.03906 1.59-.03173 2.39-.02441.31.00293.63.00586.94.00586 1.12 0 2.28.00928 3.41.0459.7.02734 1.84.01807 2.52-.01807.99-.05029 2-.05273 3.01-.05517.65-.00196 1.29-.00391 1.93-.01807.24-.00635.45-.00391.61.00928.08.00634.15.01513.21.02734.39.06543 1.08.06445 1.75.06348h.22c1.95-.01074 3.9-.01416 5.85-.01807 3.11-.00586 6.22-.01172 9.33-.04541.55-.00928 1.1-.01855 1.63-.0459.61-.0332 1.22-.04931 1.86-.05664.58-.00683 1.18-.00683 1.82-.00683 2.68.01806 5.33.05468 8.02.05468.77-.00341 1.53.00391 2.3.01123 1.35.01319 2.71.02637 4.07-.0205h.87c2.59.08496 5.33.09277 8.06.10058.77.00244 1.55.00488 2.32.00879.7.00488 1.41.00684 2.12.00879 2.12.00488 4.23.00977 6.23.0918.97.03613 2.09.06347 3.07-.02735.35-.02734.79-.01855 1.15 0 .95.05078 2 .07032 3.04.08985.45.00879.9.01758 1.34.02881.45.00878 1.01.02685 1.26.05419.57.06885 1.37.08204 2.18.09522.69.01123 1.39.02295 1.93.06934.11.00927.4 0 .57 0l.22-.00879c1.32-.05616 1.44-.06104 2.08.00879 1.01.10937 2.36.13671 3.71.16406h.01c.76.01855 1.36.0459 1.91.10058.39.03565.78.07373 1.18.11182.41.03955.81.0791 1.23.11621 2.12.20069 3.01.46485 3.83.73877.13.04541-.16.07276-.69.06397-.65-.00928-1.22-.0459-1.95-.00928-.37.00928-2.09-.16406-2.17-.21875l-.01-.0044c-.09-.0625-.2-.13427-.13-.19677.11-.10938-.33-.2002-1.2-.25489-.65-.04589-1.41-.0913-2.06.01807-.24.03613-.61.05469-1.04.05469-2.64.00928-5.28.03662-7.96-.01807.65-.04883 1.38-.07324 2.18-.07324-2.61-.10938-3.4-.09131-5.29.06396.27.05274.81.07569 1.35.09864.57.0249 1.14.0498 1.4.11084-.24.05517-.73.05517-1.2.05517-.17 0-.37-.00244-.55 0-.16.00244-.31.00977-.38.02735-.85.18408-2.16.14257-3.33.10498-.28-.00879-.55-.01758-.81-.02295-.71-.01514-1.41-.03321-2.12-.05127-1.44-.03662-2.87-.07324-4.37-.08545l1.28.08203c2.06.11816 4.14.19141 6.22.25537.06 0 .12-.00928.18-.01855.02-.00586.18-.00391.34-.00196l.22.00196c1.59.03222 3.2.03271 4.82.03369 1.13.00049 2.26.00097 3.38.0122.2.00928.4.00928.58.00928.74.0293 1.51.05469 2.27.08106.88.03027 1.73.06201 2.51.10107l.23.01465c.18.00977.37.01807.55.03125 3.79.07275 7.58.11816 11.37.11816 1.96 0 3.92-.00879 5.88-.03613 9.8-.12793 19.58-.24658 29.37-.16406.61.00439 1.21.00683 1.82.00781.6.00098 1.2.00098 1.79.00098h4.83c3.61 0 7.22.02734 10.83.20068h.07c1.05.01856 2.1.03662 3.16.07324h.19c.21 0 .42-.01562.64-.03174.11-.0083.22-.0166.34-.02294.06-.0044.12-.00879.18-.01221.07-.00391.14-.00635.2-.00635l3.42-.05469c2.28-.03662 4.55-.05468 6.83-.05468 5.68-.00928 11.37.05468 17.05.2373.87.02734 1.74.05469 2.61.09082 1.74.06397 3.48.13721 5.22.20996.44.01856.87.03418 1.3.05029.44.01612.87.03174 1.31.0503.9-.02539 1.81-.0503 2.72-.07373.74-.01953 1.48-.0376 2.21-.0542 6.29-.15528 12.57-.30078 18.86-.39209 1.85-.02735 3.69-.0459 5.54-.06397 2.08-.14599 4.16-.25537 6.28-.2373.7.00928 1.41.02734 2.12.06396h.13c.07 0 .13-.00439.2-.01123.07-.00683.13-.01611.19-.02539 1.61-.20947 3.24-.25537 4.89-.25537.49 0 .98.00928 1.47.00928h.5c.32.00928.65.00928.98.00928 2.05.01806 4.09.03613 6.14.04541 2.03.00927 4.05.02734 6.08.04541zm-273.28-1.37745c-1.33-.04541-1.47-.03613-3.12.07325h.01c1.54.0415 3.01.05127 4.53.06152l1.46.01123c-.32-.1333-1.14-.13379-1.92-.13428-.34-.00048-.67-.00048-.96-.01172zm11.74.1919c.25.00928.55 0 .62-.03662h.01c.06-.02735-.12-.05469-.27-.07276-.2-.02734-.53-.03662-.87-.03662-.74 0-1.49-.01123-2.23-.02246-1.67-.02539-3.36-.05127-5.09.04981.1.00927.13.01806.18.01806 1.63.09424 3.42.09375 5.22.09327.81-.00049 1.63-.00098 2.43.00732zm4.84-.146c-.02.05469.42.06397.87.05469.37-.00928.82-.00928 1.01-.05469-.1-.0498-.42-.04443-.72-.03955-.08.00147-.17.00293-.24.00293-.37-.00928-.89-.01806-.92.03662zm-50.43-1.632809c-1.17 0-2.05.009277-2.21-.109375.76.008789 1.48.027344 2.21.109375zm-98.4.748049c.21-.02735.75.05469.79-.02735l.01.01807c0-.00439 0-.00928.01-.01416.03-.03662.07-.08594-.62-.08594-.19 0-.38-.00488-.58-.00927-.19-.0044-.38-.00928-.58-.00928-1.01-.00879-2.02-.00879-3.02 0-.11.00195-.23.00293-.36.0039-.53.00489-1.12.01026-1.18.06934-.09.09131.86.07275 1.47.09131h.6l.4.00293c.65.00342 1.28.00683 1.46.09717.05.01855.39.03662.67.01806.17-.01806.31-.03613.21-.05468-.32-.07276-.38-.11817.72-.1001zm-46.47-.958987c-.11.009766-.22.019532-.34.028321l-.01-.008789c-.5.04541-.12.072754.22.09082.55.027832 1.33.018555 1.74 0 .5-.026855 1.04-.039063 1.58-.05127.73-.016601 1.45-.032714 2.04-.085449-.84-.054199-1.82-.047851-2.83-.041015-.35.002441-.7.004882-1.05.004882-.64 0-1 .031739-1.35.0625zm-6.27.021973c-.07-.002441-.16-.002441-.26-.002441-.16-.004883-.29 0-.4.008789-.11.008301-.2.019043-.28.027832.05.002929.11.006836.16.010742.1.008301.2.016113.31.016113.26 0 .53-.008789.68-.036133-.04-.015136-.12-.021972-.21-.024902zm-217.036 2.268554c-.354 0-.605.00928-.743.03662v-.00928c-.025.0044-.03.01124-.021.01807.009.00733.033.01416.064.01856.208.02734 1.504.05468 1.798.02734.183-.01221.156-.02881.069-.04395-.041-.00732-.095-.01416-.147-.02002-.276-.02734-.691-.02734-1.02-.02734zm-240.471 1.16943c.499.10889.997.21778 1.385.3086.527-.09131.89-.15528 1.253-.21924-.166-.05469-.331-.13135-.495-.18945-.136-.04834-.271-.08399-.404-.08399-.588.00928-1.167.11865-1.746.18262zm151.26.36329h.977l-.009.00927h.087c-.104-.0459-.217-.09131-.329-.12793-.178-.05468-.456-.03662-.736-.01855-.141.00928-.283.01855-.413.01855.082.02051.162.04395.241.0669.061.01806.122.03564.182.05176zm67.214.99267c.004-.05224.022-.10937.053-.17187.044-.08203.104-.16407.182-.23682-.944.00879-1.889.02197-2.846.03271-1.023.01172-2.059.02149-3.118.02149.152-.05078.513-.07568.907-.09522.456-.02294.958-.03857 1.237-.07763-.77-.10059-1.763-.11865-2.982-.03662.138-.14014.809-.21924 2.014-.23731-.605-.07275-1.133-.12744-2.161-.1001h-1.011c-3.043-.06396-5.575.05469-7.9.2461-.328.02734-.657.04541-1.02.06396l-.055.00293c-1.683.08838-1.719.09033-1.198.27051l.335.00879c3.863.09766 7.719.19482 11.575.30127.83-.00879 1.625.00928 2.368.06396l3.656.10938c-.028-.04932-.041-.10401-.036-.16553zm-2.747-.53662c.778-.05469 1.305-.01855 1.893.02734-.743.02735-1.366.03663-1.893-.02734zm2.792 0c.06.01807.173.02734.311.02734.021-.01855.043-.03418.065-.05029.021-.01611.043-.03174.064-.05029-.185.00537-.361.01709-.441.03418-.053.01123-.062.02441.001.03906zm-2.377-.32861c1.089-.02735 2.195-.04541 3.293-.04541h-.009c.031-.01612.059-.03223.087-.04834l.06-.03369h-.155c-1.349.00927-2.688.02734-4.028.04541-.363 0-.683.00927-.683.05468 0 .06397.458.0459.856.0459.099 0 .194-.00439.289-.00928.095-.00488.19-.00927.29-.00927zm14.433-.88477c.744-.04541 1.496-.11865 2.239-.21875l-.009-.02734c.882-.11865 1.763-.22803 2.645-.29199-.635.02294-1.299.01416-1.974.00537l-.403-.00537c-.086-.04541.553-.02735.562-.06397.009-.02734-.207-.02734-.38-.02734-.499.02148-.959.01123-1.417.00097-.319-.00683-.638-.01367-.969-.00976-.466.0083-.934.01172-1.401.01513-1.091.00733-2.176.01465-3.223.08497-.708.05468-1.797.05468-2.86.05468h-5.921c-.397 0-.648.02735-.441.06397.701.13672 1.089.25537.968.36474-.095.08204.173.10938.925.11866l2.239.05468c1.063-.24609 2.299-.18261 3.457-.13672 1.625.07276 3.224.11866 4.823.07276-.052-.00879-.078-.01807-.078-.02734 0-.03614.371-.03663.57-.03663.251 0 .527-.00879.648.00928zm31.538.35596c-.095.01806-.19.02734-.285.03662h.009c.026.00879.06.01807.086.01807.176-.00977.354-.01709.54-.02442.153-.00635.312-.01318.48-.02148-.277-.00879-.553-.00879-.83-.00879zm.406.1914c.26.05469.502.10938.709.15528.527-.09131.89-.15528 1.253-.21924-.017-.00879-.026-.00879-.034-.00879-.461.0376-1 .05078-1.577.06397zm15.385-.25537h.095l-.009-.02734c.022-.02734.047-.05225.073-.07764s.052-.05029.074-.07763c-1.385-.02393-2.762 0-4.139.02441-.686.01221-1.372.02441-2.058.03076-.545 0-.994.02686-1.392.06348.242.02734.484.06396.726.09131l-.034-.07276c.337.16407.683.29151 1.028.35547h1.081c.242-.05469.484-.14599.726-.2915l-.043.06347c.968 0 1.927.00928 2.886.01856l.476-.05518c.034-.00879.06-.00879.095-.00879.069-.00488.138-.01171.207-.01855s.138-.01367.208-.01807zm46.204-.05468h.017l.009-.00928 10.925-.05469c6.853-.03613 13.716-.05469 20.57-.08203.008-.30078-.441-.3374-.865-.3374h-.449-1.841c-1.832 0-3.673.01806-5.506.06396-1.192.03614-2.376.06348-3.56.06348-.597 0-1.184-.00879-1.781-.01807l-.89-.02734-.062-.00147c-.274-.00878-.555-.01806-.828-.03515-.597.03662-1.184.05469-1.781.06396-1.184.02735-2.368.01856-3.552 0l-.063-.00146c-.575-.00879-1.142-.01709-1.717-.03516-2.446-.06347-4.901-.06396-7.347-.06396-.066 0-.141-.00196-.22-.00391-.532-.01269-1.255-.03027-1.059.47852zm25.583.11865h1.158l.009.00879c.76 0 1.521.01855 2.273.0459.334-.02149.669-.04541 1.004-.06934.365-.02637.731-.05273 1.096-.07666-.164.00928-.32.00928-.484.00928-.156 0-.432-.00928-.562-.01856-.748-.0747-1.547-.05127-2.403-.02539l-.25.00733c-1.167.03662-2.36.08203-3.596.04541h-.198c-.891 0-1.738.08203-2.446.07324-.839-.01856-1.616-.03662-2.515-.02735-.821.01807-1.746.06397-2.394-.03662-.132-.02343-.329-.01318-.536-.00244-.119.00586-.241.01172-.355.01172-1.045.01807-2.1.04541-3.146.04541-.924.00928-1.832 0-2.765.01807-.709.01855-1.418.03662-2.126.0459 1.106.03662 2.212.0913 3.318.11865.061-.00928.113-.00928.173-.00928 1.366-.1001 2.835-.17334 4.175-.07275.078.00586.156.01074.233.01513.169.00977.335.01807.501.03028.121-.00928.242-.02735.363-.02735l.363-.02734c.502-.03662 1.02-.04541 1.547-.04541.882 0 1.772.05469 2.628.11816.029.0044.056.00684.083.00782.029.00146.058.00146.09.00146 1.192-.02734 2.394-.08203 3.595-.12744.389-.01856.778-.03662 1.167-.03662zm58.076-.03662-.12.06933c.67-.17041 1.37-.25195 2.09-.30664-2.36.01856-4.73.01856-7.1.01856h-1.12c.05.04541.11.1001.15.15478 2.03.02735 4.07.05518 6.1.06397zm6.35.64795h.23v-.00928h.23c-.1-.05811-.21-.11621-.32-.16992-.07-.03028-.13-.05908-.2-.08545-.3.03613-.55.06396-.82.07275.08.02735.16.0459.25.06397.11.02441.22.04638.33.06836.1.01904.2.03808.3.05957zm120.43-1.56006c-.72-.03662-1.27-.05469-1.75.00928-.05.00878-.03.03613.03.03613.61.03662 1.13.01855 1.72-.04541zm-13.23.02734c-.76-.00928-1.59.01856-2.3-.02734v-.01807c-.37-.01855-.65.00879-.75.04541-.1.04541.25.04541.5.04541h.61c.89 0 1.78.00195 2.68.00391 1.78.00439 3.57.0083 5.36-.00391 1.15-.00879 2.41.03662 3.76-.06347-.63-.00928-1.03-.02735-1.4-.02735-.91.0166-1.82.01416-2.74.01172-1.1-.00293-2.2-.00537-3.31.02441-.76.01856-1.65.02735-2.41.00928zm-32.43 1.77295c.7-.01562 1.4-.03125 2.1-.04883v.00879c3.12-.07324 6.25-.09131 9.38-.10937 3.48-.02051 6.96-.04053 10.43-.13672-.6.00586-1.21.01513-1.81.02441-1.34.02002-2.67.04053-3.99.02149-1.54-.02149-3.04.00097-4.55.02295-1.07.01562-2.14.03125-3.23.03125-.35 0-.7.00293-1.05.00586-.72.00634-1.45.01269-2.21-.00586-.27-.00928-.56-.01221-.85-.01123-.58.00244-1.18.02099-1.76.03906l-.04.00146c-1.74.04492-3.45.08887-5.3.02588-.88-.02734-2.13 0-3.13.03613-1.04.02784-2.00.01856-3 .01856-.33-.00342-.66-.00684-.99-.00781-.64-.00244-1.27.00195-1.84.02588-.72.02832-1.42.02148-2.11.01464-.42-.00439-.83-.00879-1.26-.00537-.95.00879-2.15.03662-2.88-.06396-.11-.01807-.36-.00928-.55 0-1.65.07373-3.38.07861-5.1.08349-.62.00147-1.24.00293-1.85.00782-1.48.01367-2.96.01806-4.44.02295-1.48.00439-2.96.00878-4.44.02246 5.44.12793 10.9.25537 16.34.40136 5.02-.12744 10.05-.24609 15.07-.36474h.13c.26-.00928.51-.00928.71-.00928.74-.01855 1.48-.03516 2.22-.05127zm30.5-.72412h.1c.49-.04248.98-.08154 1.47-.11963l1.06-.08105c-.22.00341-.44.00537-.65.00683-.37.00244-.74.00244-1.1.00244-2.71 0-5.4 0-8.06.06397-.9.01806-1.57-.07324-2.28-.02735-.42.0293-.81.01416-1.2-.00097-.46-.01758-.91-.03516-1.41.01904-.63.07324-1.69.06397-2.5.0459-.41-.01074-.78-.00879-1.15-.00195-.55.00976-1.08.02929-1.64.02929h-5.65c-.88 0-1.75.01172-2.61.02295s-1.72.02246-2.59.02246c-1.69 0-3.37.01123-5.06.02246s-3.38.02295-5.07.02295c-2.33 0-4.73.01856-6.99 0-1.91-.01806-3.78 0-5.66 0-2.33-.01074-4.67-.00195-7.01.00684-1.57.00586-3.14.01172-4.7.01172-1.21 0-2.41.0039-3.62.00781-2.01.00635-4.02.0127-6.03.00147-1.46-.00635-2.95-.00391-4.44-.00196-.74.00098-1.49.00196-2.23.00196-3.31 0-6.62.00683-9.94.0122-1.94.00342-3.89.00586-5.84.00586h-1.29c2.67.19141 5.35.30078 8.04.36475.78 0 1.56-.00928 2.34-.00928.19 0 .39-.00098.59-.00195.81-.0044 1.62-.00879 2.26.05713.07.01416.2.02099.33.02441.13.00293.27.00293.39.00293 1.45-.00879 2.89-.00342 4.33.00195 1.64.00635 3.28.0127 4.95-.00195 1.98-.01855 4.03 0 6.05 0 1.72-.00586 3.45-.00732 5.17-.00879 3.77-.00244 7.53-.00537 11.28-.05517 2.26-.02735 4.78-.05469 6.58-.24659.23-.01806.49-.01806.75-.01806.88 0 1.76-.0044 2.64-.00879.88-.0044 1.76-.00928 2.64-.00928 1.09.00342 2.18.00195 3.27-.00195 1.9-.00684 3.8-.02002 5.7-.02539 2.74-.00879 5.49-.02002 8.23-.03125 2.92-.01172 5.83-.02344 8.74-.03272 2.56-.00928 5.1-.03662 7.65-.06396.35-.00928.68-.00928 1.02-.00928.7.00635 1.4.00391 2.09.00195.35-.00097.7-.00195 1.05-.00195zm14.37-.15479c2.03-.01855 4.07-.04589 6.1-.06396l-.02-.02734c.19-.20996.4-.41065.64-.60205h-1.61c-1.52 0-2.96-.00928-4.43.03662-1.22.03613-2.36-.02735-3.61-.00928-.28.00439-.56.00976-.84.01514-1.43.02636-2.89.05371-4.29-.01514-.25-.00928-.69 0-.99.01807-1.89.08496-3.79.06543-5.68.04638l-1.05-.00976c-.92 0-1.82.00927-2.69.03662-.73.02002-1.46.02539-2.2.02685l-.79.00049c-1.4 0-2.82.00928-4.23.01807-2.52.02734-5.05.07324-7.63.05469-.76-.00391-1.54.00927-2.34.02929-.91.02344-1.84.05615-2.73.08057-.88.03613-1.54.05469-2.43 0-.61-.04102-1.42-.03565-2.22-.03027-.26.00146-.52.00292-.77.00292-1.02.0044-2.04.00977-3.06.01514-3.01.01514-6.02.03027-9.03.03027-1.14 0-2.28.00489-3.42.00977-2.28.01025-4.55.02051-6.82-.00977-.7-.00976-1.42-.00097-2.15.00879-.62.00879-1.25.01856-1.88.01856-2.36.00928-4.71.00928-7.04 0-.65-.0044-1.28.00781-1.91.01953-.7.01318-1.39.02637-2.1.01709-1.09-.01807-2.19-.01221-3.29-.00586-.55.00293-1.09.00586-1.64.00586-1.47 0-2.97.02734-4.41-.01855-.26-.01075-.56-.01172-.85-.00879-.2.00195-.39.00537-.57.00879-1.01.01855-1.96.02734-2.98 0-.66-.01807-1.46.01855-2.2.02734-.23.00244-.46.00976-.69.01709-.65.02099-1.3.04101-1.77-.05322-.16-.03663-.65-.01856-.92 0-.93.04541-1.85.03613-2.73 0-.35-.01416-.69-.01856-1.04-.01807-.31 0-.63.00439-.95.00879-.27.00928-.73.00928-.77.00928-.77-.13819-1.71-.09034-2.62-.04444-.41.021-.82.04151-1.2.04444-1.19.01806-2.32.02734-3.56.02734h-4.35c1.61.07227 3.21.19873 4.82.3252l.04.00292h1.97c4.87-.00878 9.76-.01806 14.63-.01806 5.08-.00928 10.15-.01856 15.22-.01856 9.29 0 18.58-.03613 27.87-.10937 2.97-.02246 5.92-.06836 8.87-.11426l2.03-.03174c.19-.00488.35-.01318.53-.01611.13-.00195.27-.00049.42.00732 1.64.10498 3.44.08643 5.23.06787.55-.00585 1.09-.01123 1.63-.01318 1.59-.00732 3.18-.02051 4.78-.03369 2.4-.02002 4.81-.03955 7.21-.03955.92 0 1.83-.00488 2.75-.00977 1.84-.01025 3.68-.0205 5.5.00977.7.01562 1.36-.0044 2.02-.02442.5-.01513 1-.03027 1.52-.03027.16 0 .32-.00146.46-.00293.51-.00439.92-.00781 1.25.04883.13.02734.27.03613.45.03613 1.65-.08203 3.32-.11816 5.01-.06347 1.28.03613 2.51.08203 3.65.37402h.02c-.02-.00928-.12-.06397-.12-.06397zm47.11-.76611c.08-.00928.16-.01855.24-.01855h-.01c.47-.03662.95-.06397 1.42-.08203-1.22-.00928-2.46 0-3.67-.00928.03.01269.05.02295.08.03174.03.01074.06.01855.1.02343.15.03614.84.05469 1.84.05469zm15.23 3.60303c-4.19-.85742-7.29-.61133-5.92.11865 1.23.65039 2.48.42676 3.93.16797.62-.11133 1.28-.229 1.99-.28662zm5.27-.3374-.07.41015.51-.15527zm14.25.03613h.01c0 .00928.44.20068.44.20068l-.32-.27343c-1.72.9121-3.34.62011-5.02-.08204-.66-.27392-1.48-.00927-1.28.9209.07.34668.62.74805 1.03.84864 2.04.49267 3.99.5288 5.14-1.61475zm18.01-2.59033.26-.02735.01-.03662c.11-.01562.22-.02783.32-.03906l.25-.0249h-.58c-3.11.01855-6.3-.00928-9.43-.03662h-.03c-.68-.00537-1.36-.0083-2.04-.01123-1.6-.00684-3.2-.01416-4.73-.05225-.55-.0083-1.11-.00732-1.65-.00635-.65.00147-1.27.00244-1.85-.0122-.42-.01319-.88-.01661-1.33-.02002-.8-.00635-1.6-.0127-2.24-.07081-.11-.00927-.38 0-.58 0-1.4.01954-2.74.00098-4.1-.01757-.52-.00684-1.04-.01416-1.56-.01905-.9-.01025-1.81-.02002-2.72-.02685-.76-.00586-1.52-.00977-2.29-.00977h-1.4-.27c-.24 0-.48 0-.72-.00097-.33-.00196-.67-.00635-1-.01709-1.26-.0293-2.57-.03223-3.87-.03516-.75-.00195-1.51-.00391-2.25-.01074-1.19-.00879-2.35-.01807-3.48-.04541-.29.04541-.49.15478-.38.45605.56.03662 1.13.08203 1.7.11865h.47c2.31-.02734 4.59-.00927 6.86-.00927 4.96.01855 9.93.0459 14.87.08203.16-.00879.34-.01807.51-.01807.12-.00293.25-.00683.37-.01074.26-.0083.52-.0166.78-.0166h.37.77.44c.16.00586.31.00781.47.0083l.23.00049c.15.00927.29.00927.44.00927l.73.02735c.06.00439.13.00879.19.01221.07.0039.14.00634.2.00634.17.00537.33.01416.49.02393l.34.02148c2.38.01709 4.75.04297 7.14.06885l.42.0044c2.33-.18262 4.67-.32862 7.06-.32862.85 0 1.69.01807 2.55.06397h.13zm36.05.25537c.21-.06397.42-.146.63-.24658l-.03.06201c.18-.02637.37-.04395.55-.0708h-.35c-.58-.01123-1.14.00537-1.71.02246-.82.02441-1.66.04931-2.64-.0044-.67-.03955-1.57-.03125-2.5-.02197l-.42.00391.43.02734 2.2.08203c.11.00928.22.00928.34.00928h.07 1.26l-.05-.06397c.05.02832.09.05176.13.07276.04.01953.08.03711.12.05469.65.02734 1.31.04589 1.97.07324zm8.23.08203h.81c.29-.07324.62-.146.95-.21875h-2.39c-.07.02734-.14.06348-.2.08203.13.02539.26.04834.41.07324.11.01905.23.03955.35.06348zm52.34-1.08887c.37.01026.75.021 1.13-.02392h.01c-.44-.04151-.83-.02149-1.2-.00244-.14.00683-.27.01367-.41.01757.16 0 .31.0044.47.00879zm-36.88-.04883c.32.00733.65.01563.97.02491v-.01856c-.05-.03613-.49-.03613-.82-.03613h-1.99c.61.00586 1.23.01562 1.84.02978zm.71-.49511c.7-.01807 1.27-.03662 1.85.01806-.72.03662-1.25.02735-1.85-.01806zm6.51.76513.05.01026v.00879l.43-.08203c-.3 0-.53.01855-.53.04589 0 .00586.02.01123.05.01709zm1.34-.26074c.14.0083.29.01563.43.01563v.00927c.13-.01855.25-.03662.37-.03662h-1.05c.08.00293.17.00733.25.01172zm-3.67-.3208.4-.00098c.5-.00293 1.03-.00927 1.55-.01513 1.05-.01221 2.1-.02442 3.03-.01221 1.86.03613 3.72.04053 5.58.04443.94.00196 1.88.00391 2.82.01026.19 0 .29-.02735.23-.05469l-.5-.00342c-.84-.0039-1.72-.00781-2.17-.10644-.06-.00879-.37-.00879-.57-.00879-.4-.0044-.79-.01074-1.19-.01709-1.36-.02197-2.71-.04444-4.13.02588-.7.03662-1.57.03662-2.4.02783-1.53-.02783-3.01.02685-4.64.0542.64.06103 1.32.05859 1.99.05615zm7.92.33643c.08.00927.16.01806.24.01806h.39c-.22-.01806-.42-.01806-.63-.01806zm2.96.21875c-.01-.01807-.03-.04541-.03-.04541h-1.24c.17.01806.34.04541.5.06396.25-.00928.51-.01855.77-.01855zm2.85 4.86181c-2.87-.3374-4.62-.07275-3.52.51075v-.00879c1.23.65039 2.48.42675 3.93.16796.62-.11132 1.28-.229 1.99-.28662-.77-.15527-1.49-.27392-2.16-.35595l-.04-.11866zm5.59-.99414c-.02.02246-.23.18311-.3.23731l.49-.27393s-.18.00928-.19.03662zm-3.06-4.40576c1.53-.01807 3.02 0 4.49.04541-1.54.01856-3.05.00928-4.49-.04541zm5.14 5.4458-.07.41016.5-.15479zm6.38-5.33642c-.18-.01807-.37-.01807-.51 0v.00927c-.19.01807-.1.04541.11.06397.26.02734.6.02734.92.02734 1.08.02735 2.17.05469 3.01.12744.51-.07275.64-.12744-.52-.14599-.27-.00489-.55-.00733-.84-.00977-.78-.00586-1.56-.01221-2.17-.07226z" fill="#f6f6f6" fill-rule="evenodd"/></svg>
